<svg width="24" height="24" viewBox="0 0 24 24" fill="none" xmlns="http://www.w3.org/2000/svg">
<path d="M10.5307 20.9922L10.6482 20.9863C11.7983 20.9174 20.9961 20.097 20.9961 11.4863C20.9961 3.43941 11.6596 2.99113 9.35359 3.00013H8.88431C6.58732 6.33314 5.2994 8.20133 3.00391 11.5343H8.41357C8.87208 11.5343 9.3785 11.5508 9.89842 11.6017M10.5307 20.9922C10.5411 20.9902 14.9011 20.1656 14.9012 16.0984C14.9012 12.7624 12.2534 11.8298 9.89945 11.6004M10.5307 20.9922C10.5363 20.9893 12.9091 19.7586 13.3494 17.5797C13.7902 15.3982 11.6162 13.8418 8.29511 13.8418L3.00391 20.9922H10.5307Z" stroke="#606F85" stroke-width="1.5"/>
</svg>
