<svg width="40" height="40" viewBox="0 0 40 40" fill="none" xmlns="http://www.w3.org/2000/svg">
<path fill-rule="evenodd" clip-rule="evenodd" d="M14.1157 -0.000145761H13.0724C7.96576 7.4098 5.10244 11.5631 -0.000854492 18.9731H12.0257C13.0457 18.9731 14.1724 19.0097 15.329 19.1231L11.7624 24.103L-0.000854492 39.9996H16.7324C16.7324 39.9996 39.9989 39.2862 39.9989 18.8664C39.9989 0.976514 19.2423 -0.0201456 14.1157 -0.000145761Z" fill="#3793EF"/>
<path fill-rule="evenodd" clip-rule="evenodd" d="M16.7324 39.9996C16.7324 39.9996 26.449 38.1729 26.449 29.1196C26.449 21.703 20.5623 19.6297 15.329 19.1197L11.7624 24.103L-0.000854492 39.9996H16.7324ZM21.809 35.3329L21.839 35.2896L21.809 35.3329Z" fill="#1560AB"/>
<path fill-rule="evenodd" clip-rule="evenodd" d="M11.7624 24.103C19.1457 24.103 23.979 27.563 22.999 32.413C22.019 37.2629 16.7324 39.9996 16.7324 39.9996C16.7324 39.9996 26.449 38.1729 26.449 29.1196C26.449 21.703 20.5623 19.6297 15.329 19.1197L11.7624 24.103Z" fill="#012447"/>
</svg>
